# xmcd
#
# Track frame offsets:
# 150
# 18004
# 31923
# 44045
# 55880
# 78712
# 96877
# 108236
# 120967
# 137995
# 148578
# 162825
# 175578
# 188633
#
# Disc length: 2697 seconds
#
#
# Revision: 0
# Processed by: cddbd v1.5.2PL0 Copyright (c) Steve Scherf et al.
# Submitted via: FreeRIP 2.945 
#
DISCID=b20a870e
DTITLE=Lindomar e Joao Marcelo Cantando Roupa Nova - Lindomar e Joao Marcelo Cantando Roupa Nova
DYEAR=1900
DGENRE=
TTITLE0=Volta pra mim
TTITLE1=Seguindo no trem azul
TTITLE2=Meu Universo e voce
TTITLE3=Perdoa
TTITLE4=Os coracoes nao sao iguais
TTITLE5=linda demais
TTITLE6=Romantico demais
TTITLE7=Timida
TTITLE8=Amar e
TTITLE9=Bem Simples
TTITLE10=Coracoes psicodelicos
TTITLE11=De Volta para o futuro
TTITLE12=Anjo
TTITLE13=A viagem
EXTD=
EXTT0=
EXTT1=
EXTT2=
EXTT3=
EXTT4=
EXTT5=
EXTT6=
EXTT7=
EXTT8=
EXTT9=
EXTT10=
EXTT11=
EXTT12=
EXTT13=
PLAYORDER=
